<svg width="1600" height="979" viewBox="0 0 1600 979" fill="none" xmlns="http://www.w3.org/2000/svg">
<path d="M1634.9 -77.5801H1542.1V15.217H1634.9V-77.5801Z" stroke="#E2E7F0" stroke-width="4.28294"/>
<path d="M1542.1 -77.5801H1449.3V15.217H1542.1V-77.5801Z" stroke="#E2E7F0" stroke-width="4.28294"/>
<path d="M1449.3 -77.5801H1356.51V15.217H1449.3V-77.5801Z" fill="#E2E7F0" fill-opacity="0.3" stroke="#E2E7F0" stroke-width="4.28294"/>
<path d="M614.129 -77.5801H521.332V15.217H614.129V-77.5801Z" stroke="#E2E7F0" stroke-width="4.28294"/>
<path d="M521.332 -77.5801H428.535V15.217H521.332V-77.5801Z" stroke="#E2E7F0" stroke-width="4.28294"/>
<path d="M428.535 -77.5801H335.738V15.217H428.535V-77.5801Z" stroke="#E2E7F0" stroke-width="4.28294"/>
<path d="M335.738 -77.5801H242.941V15.217H335.738V-77.5801Z" stroke="#E2E7F0" stroke-width="4.28294"/>
<path d="M242.94 -77.5801H150.143V15.217H242.94V-77.5801Z" fill="#E2E7F0" fill-opacity="0.3" stroke="#E2E7F0" stroke-width="4.28294"/>
<path d="M150.144 -77.5801H57.3465V15.217H150.144V-77.5801Z" stroke="#E2E7F0" stroke-width="4.28294"/>
<path d="M57.3464 -77.5801H-35.4507V15.217H57.3464V-77.5801Z" stroke="#E2E7F0" stroke-width="4.28294"/>
<path d="M1634.9 15.2178H1542.1V108.015H1634.9V15.2178Z" stroke="#E2E7F0" stroke-width="4.28294"/>
<path d="M1542.1 15.2178H1449.3V108.015H1542.1V15.2178Z" stroke="#E2E7F0" stroke-width="4.28294"/>
<path d="M614.129 15.2178H521.332V108.015H614.129V15.2178Z" stroke="#E2E7F0" stroke-width="4.28294"/>
<path d="M521.332 15.2178H428.535V108.015H521.332V15.2178Z" stroke="#E2E7F0" stroke-width="4.28294"/>
<path d="M428.535 15.2178H335.738V108.015H428.535V15.2178Z" stroke="#E2E7F0" stroke-width="4.28294"/>
<path d="M335.738 15.2178H242.941V108.015H335.738V15.2178Z" stroke="#E2E7F0" stroke-width="4.28294"/>
<path d="M242.94 15.2178H150.143V108.015H242.94V15.2178Z" stroke="#E2E7F0" stroke-width="4.28294"/>
<path d="M150.144 15.2178H57.3465V108.015H150.144V15.2178Z" stroke="#E2E7F0" stroke-width="4.28294"/>
<path d="M57.3464 15.2178H-35.4507V108.015H57.3464V15.2178Z" stroke="#E2E7F0" stroke-width="4.28294"/>
<path d="M1634.9 108.015H1542.1V200.812H1634.9V108.015Z" stroke="#E2E7F0" stroke-width="4.28294"/>
<path d="M1542.1 108.015H1449.3V200.812H1542.1V108.015Z" stroke="#E2E7F0" stroke-width="4.28294"/>
<path d="M1449.3 108.015H1356.51V200.812H1449.3V108.015Z" stroke="#E2E7F0" stroke-width="4.28294"/>
<path d="M799.723 108.015H706.926V200.812H799.723V108.015Z" stroke="#E2E7F0" stroke-width="4.28294"/>
<path d="M706.926 108.015H614.129V200.812H706.926V108.015Z" stroke="#E2E7F0" stroke-width="4.28294"/>
<path d="M614.129 108.015H521.332V200.812H614.129V108.015Z" stroke="#E2E7F0" stroke-width="4.28294"/>
<path d="M521.332 108.015H428.535V200.812H521.332V108.015Z" stroke="#E2E7F0" stroke-width="4.28294"/>
<path d="M428.535 108.015H335.738V200.812H428.535V108.015Z" stroke="#E2E7F0" stroke-width="4.28294"/>
<path d="M335.738 108.015H242.941V200.812H335.738V108.015Z" stroke="#E2E7F0" stroke-width="4.28294"/>
<path d="M242.94 108.015H150.143V200.812H242.94V108.015Z" stroke="#E2E7F0" stroke-width="4.28294"/>
<path d="M57.3464 108.015H-35.4507V200.812H57.3464V108.015Z" stroke="#E2E7F0" stroke-width="4.28294"/>
<path d="M1542.1 200.812H1449.3V293.61H1542.1V200.812Z" stroke="#E2E7F0" stroke-width="4.28294"/>
<path d="M1449.3 200.812H1356.51V293.61H1449.3V200.812Z" stroke="#E2E7F0" stroke-width="4.28294"/>
<path d="M1356.51 200.812H1263.71V293.61H1356.51V200.812Z" stroke="#E2E7F0" stroke-width="4.28294"/>
<path d="M1263.71 200.812H1170.91V293.61H1263.71V200.812Z" stroke="#E2E7F0" stroke-width="4.28294"/>
<path d="M1634.9 293.609H1542.1V386.406H1634.9V293.609Z" stroke="#E2E7F0" stroke-width="4.28294"/>
<path d="M1542.1 293.609H1449.3V386.406H1542.1V293.609Z" stroke="#E2E7F0" stroke-width="4.28294"/>
<path d="M1449.3 293.609H1356.51V386.406H1449.3V293.609Z" stroke="#E2E7F0" stroke-width="4.28294"/>
<path d="M1356.51 293.609H1263.71V386.406H1356.51V293.609Z" stroke="#E2E7F0" stroke-width="4.28294"/>
<path d="M985.317 293.609H892.52V386.406H985.317V293.609Z" stroke="#E2E7F0" stroke-width="4.28294"/>
<path d="M892.521 293.609H799.723V386.406H892.521V293.609Z" stroke="#E2E7F0" stroke-width="4.28294"/>
<path d="M799.723 293.609H706.926V386.406H799.723V293.609Z" stroke="#E2E7F0" stroke-width="4.28294"/>
<path d="M706.926 293.609H614.129V386.406H706.926V293.609Z" stroke="#E2E7F0" stroke-width="4.28294"/>
<path d="M614.129 293.609H521.332V386.406H614.129V293.609Z" stroke="#E2E7F0" stroke-width="4.28294"/>
<path d="M521.332 293.609H428.535V386.406H521.332V293.609Z" stroke="#E2E7F0" stroke-width="4.28294"/>
<path d="M428.535 293.609H335.738V386.406H428.535V293.609Z" stroke="#E2E7F0" stroke-width="4.28294"/>
<path d="M335.738 293.609H242.941V386.406H335.738V293.609Z" stroke="#E2E7F0" stroke-width="4.28294"/>
<path d="M242.94 293.609H150.143V386.406H242.94V293.609Z" stroke="#E2E7F0" stroke-width="4.28294"/>
<path d="M150.144 293.609H57.3465V386.406H150.144V293.609Z" stroke="#E2E7F0" stroke-width="4.28294"/>
<path d="M57.3464 293.609H-35.4507V386.406H57.3464V293.609Z" stroke="#E2E7F0" stroke-width="4.28294"/>
<path d="M1170.91 386.405H1078.11V479.202H1170.91V386.405Z" stroke="#E2E7F0" stroke-width="4.28294"/>
<path d="M892.521 386.405H799.723V479.202H892.521V386.405Z" stroke="#E2E7F0" stroke-width="4.28294"/>
<path d="M799.723 386.405H706.926V479.202H799.723V386.405Z" stroke="#E2E7F0" stroke-width="4.28294"/>
<path d="M706.926 386.405H614.129V479.202H706.926V386.405Z" stroke="#E2E7F0" stroke-width="4.28294"/>
<path d="M614.129 386.405H521.332V479.202H614.129V386.405Z" stroke="#E2E7F0" stroke-width="4.28294"/>
<path d="M335.738 386.405H242.941V479.202H335.738V386.405Z" stroke="#E2E7F0" stroke-width="4.28294"/>
<path d="M242.94 386.405H150.143V479.202H242.94V386.405Z" stroke="#E2E7F0" stroke-width="4.28294"/>
<path d="M150.144 386.405H57.3465V479.202H150.144V386.405Z" fill="#E2E7F0" fill-opacity="0.3" stroke="#E2E7F0" stroke-width="4.28294"/>
<path d="M57.3464 386.405H-35.4507V479.202H57.3464V386.405Z" stroke="#E2E7F0" stroke-width="4.28294"/>
<path d="M1449.3 479.203H1356.51V572H1449.3V479.203Z" stroke="#E2E7F0" stroke-width="4.28294"/>
<path d="M1356.51 479.203H1263.71V572H1356.51V479.203Z" stroke="#E2E7F0" stroke-width="4.28294"/>
<path d="M1263.71 479.203H1170.91V572H1263.71V479.203Z" stroke="#E2E7F0" stroke-width="4.28294"/>
<path d="M1170.91 479.203H1078.11V572H1170.91V479.203Z" stroke="#E2E7F0" stroke-width="4.28294"/>
<path d="M799.723 479.203H706.926V572H799.723V479.203Z" stroke="#E2E7F0" stroke-width="4.28294"/>
<path d="M706.926 479.203H614.129V572H706.926V479.203Z" stroke="#E2E7F0" stroke-width="4.28294"/>
<path d="M242.94 479.203H150.143V572H242.94V479.203Z" stroke="#E2E7F0" stroke-width="4.28294"/>
<path d="M150.144 479.203H57.3465V572H150.144V479.203Z" stroke="#E2E7F0" stroke-width="4.28294"/>
<path d="M57.3464 479.203H-35.4507V572H57.3464V479.203Z" stroke="#E2E7F0" stroke-width="4.28294"/>
<path d="M1634.9 572H1542.1V664.797H1634.9V572Z" stroke="#E2E7F0" stroke-width="4.28294"/>
<path d="M1542.1 572H1449.3V664.797H1542.1V572Z" stroke="#E2E7F0" stroke-width="4.28294"/>
<path d="M1449.3 572H1356.51V664.797H1449.3V572Z" stroke="#E2E7F0" stroke-width="4.28294"/>
<path d="M1356.51 572H1263.71V664.797H1356.51V572Z" fill="#E2E7F0" fill-opacity="0.3" stroke="#E2E7F0" stroke-width="4.28294"/>
<path d="M1263.71 572H1170.91V664.797H1263.71V572Z" stroke="#E2E7F0" stroke-width="4.28294"/>
<path d="M1170.91 572H1078.11V664.797H1170.91V572Z" stroke="#E2E7F0" stroke-width="4.28294"/>
<path d="M1078.11 572H985.317V664.797H1078.11V572Z" stroke="#E2E7F0" stroke-width="4.28294"/>
<path d="M985.317 572H892.52V664.797H985.317V572Z" stroke="#E2E7F0" stroke-width="4.28294"/>
<path d="M892.521 572H799.723V664.797H892.521V572Z" stroke="#E2E7F0" stroke-width="4.28294"/>
<path d="M799.723 572H706.926V664.797H799.723V572Z" stroke="#E2E7F0" stroke-width="4.28294"/>
<path d="M706.926 572H614.129V664.797H706.926V572Z" stroke="#E2E7F0" stroke-width="4.28294"/>
<path d="M521.332 572H428.535V664.797H521.332V572Z" stroke="#E2E7F0" stroke-width="4.28294"/>
<path d="M428.535 572H335.738V664.797H428.535V572Z" stroke="#E2E7F0" stroke-width="4.28294"/>
<path d="M335.738 572H242.941V664.797H335.738V572Z" stroke="#E2E7F0" stroke-width="4.28294"/>
<path d="M242.94 572H150.143V664.797H242.94V572Z" fill="#E2E7F0" fill-opacity="0.3" stroke="#E2E7F0" stroke-width="4.28294"/>
<path d="M1634.9 664.797H1542.1V757.594H1634.9V664.797Z" stroke="#E2E7F0" stroke-width="4.28294"/>
<path d="M985.317 664.797H892.52V757.594H985.317V664.797Z" stroke="#E2E7F0" stroke-width="4.28294"/>
<path d="M892.521 664.797H799.723V757.594H892.521V664.797Z" stroke="#E2E7F0" stroke-width="4.28294"/>
<path d="M799.723 664.797H706.926V757.594H799.723V664.797Z" stroke="#E2E7F0" stroke-width="4.28294"/>
<path d="M521.332 664.797H428.535V757.594H521.332V664.797Z" stroke="#E2E7F0" stroke-width="4.28294"/>
<path d="M428.535 664.797H335.738V757.594H428.535V664.797Z" stroke="#E2E7F0" stroke-width="4.28294"/>
<path d="M335.738 664.797H242.941V757.594H335.738V664.797Z" stroke="#E2E7F0" stroke-width="4.28294"/>
<path d="M242.94 664.797H150.143V757.594H242.94V664.797Z" stroke="#E2E7F0" stroke-width="4.28294"/>
<path d="M150.144 664.797H57.3465V757.594H150.144V664.797Z" stroke="#E2E7F0" stroke-width="4.28294"/>
<path d="M57.3464 664.797H-35.4507V757.594H57.3464V664.797Z" stroke="#E2E7F0" stroke-width="4.28294"/>
<path d="M1634.9 757.594H1542.1V850.391H1634.9V757.594Z" stroke="#E2E7F0" stroke-width="4.28294"/>
<path d="M1263.71 757.594H1170.91V850.391H1263.71V757.594Z" stroke="#E2E7F0" stroke-width="4.28294"/>
<path d="M1170.91 757.594H1078.11V850.391H1170.91V757.594Z" stroke="#E2E7F0" stroke-width="4.28294"/>
<path d="M1078.11 757.594H985.317V850.391H1078.11V757.594Z" stroke="#E2E7F0" stroke-width="4.28294"/>
<path d="M985.317 757.594H892.52V850.391H985.317V757.594Z" fill="#E2E7F0" fill-opacity="0.3" stroke="#E2E7F0" stroke-width="4.28294"/>
<path d="M428.535 757.594H335.738V850.391H428.535V757.594Z" stroke="#E2E7F0" stroke-width="4.28294"/>
<path d="M335.738 757.594H242.941V850.391H335.738V757.594Z" stroke="#E2E7F0" stroke-width="4.28294"/>
<path d="M242.94 757.594H150.143V850.391H242.94V757.594Z" stroke="#E2E7F0" stroke-width="4.28294"/>
<path d="M150.144 757.594H57.3465V850.391H150.144V757.594Z" stroke="#E2E7F0" stroke-width="4.28294"/>
<path d="M57.3464 757.594H-35.4507V850.391H57.3464V757.594Z" stroke="#E2E7F0" stroke-width="4.28294"/>
<rect width="1600" height="979" fill="url(#paint0_radial_3_39688)"/>
<defs>
<radialGradient id="paint0_radial_3_39688" cx="0" cy="0" r="1" gradientUnits="userSpaceOnUse" gradientTransform="translate(800 459.929) rotate(-90) scale(646.858 1057.17)">
<stop stop-color="white" stop-opacity="0.48"/>
<stop offset="1" stop-color="#FBFBFD"/>
</radialGradient>
</defs>
</svg>
