<svg width="21" height="21" viewBox="0 0 21 21" fill="none" xmlns="http://www.w3.org/2000/svg">
<path d="M18 19.2428V20.9098H16V19.5768L8.582 20.8128C8.5104 20.8247 8.43707 20.8208 8.3671 20.8016C8.29713 20.7823 8.2322 20.748 8.17682 20.7011C8.12144 20.6541 8.07694 20.5957 8.0464 20.5299C8.01587 20.4641 8.00003 20.3923 8 20.3198V18.9098H4V20.9098H2V18.9098H1C0.734784 18.9098 0.48043 18.8044 0.292893 18.6169C0.105357 18.4293 0 18.175 0 17.9098V2.90977C0 2.64455 0.105357 2.3902 0.292893 2.20266C0.48043 2.01513 0.734784 1.90977 1 1.90977H8V0.49977C8.00003 0.42719 8.01587 0.355488 8.0464 0.289644C8.07694 0.2238 8.12144 0.165393 8.17682 0.118481C8.2322 0.0715688 8.29713 0.037276 8.3671 0.0179848C8.43707 -0.0013063 8.5104 -0.00513321 8.582 0.00676987L19.164 1.77077C19.3975 1.80959 19.6097 1.92998 19.7627 2.11053C19.9158 2.29107 19.9999 2.52006 20 2.75677V4.90977H21V6.90977H20V13.9098H21V15.9098H20V18.0628C19.9999 18.2995 19.9158 18.5285 19.7627 18.709C19.6097 18.8896 19.3975 19.0099 19.164 19.0488L18 19.2428ZM2 3.90977V16.9098H8V3.90977H2ZM10 18.5498L18 17.2158V3.60377L10 2.27077V18.5488V18.5498ZM14.5 12.9098C13.672 12.9098 13 11.7898 13 10.4098C13 9.02977 13.672 7.90977 14.5 7.90977C15.328 7.90977 16 9.02977 16 10.4098C16 11.7898 15.328 12.9098 14.5 12.9098Z" fill="#404353"/>
</svg>
