<svg width="20" height="20" viewBox="0 0 20 20" fill="none" xmlns="http://www.w3.org/2000/svg">
<g clip-path="url(#clip0_1_8139)">
<path d="M9.99999 18.3333C5.39749 18.3333 1.66666 14.6025 1.66666 9.99999C1.66666 5.39749 5.39749 1.66666 9.99999 1.66666C14.6025 1.66666 18.3333 5.39749 18.3333 9.99999C18.3333 14.6025 14.6025 18.3333 9.99999 18.3333ZM9.99999 16.6667C11.7681 16.6667 13.4638 15.9643 14.714 14.714C15.9643 13.4638 16.6667 11.7681 16.6667 9.99999C16.6667 8.23188 15.9643 6.53619 14.714 5.28594C13.4638 4.0357 11.7681 3.33332 9.99999 3.33332C8.23188 3.33332 6.53619 4.0357 5.28594 5.28594C4.0357 6.53619 3.33332 8.23188 3.33332 9.99999C3.33332 11.7681 4.0357 13.4638 5.28594 14.714C6.53619 15.9643 8.23188 16.6667 9.99999 16.6667ZM7.08332 11.6667H11.6667C11.7772 11.6667 11.8831 11.6228 11.9613 11.5446C12.0394 11.4665 12.0833 11.3605 12.0833 11.25C12.0833 11.1395 12.0394 11.0335 11.9613 10.9554C11.8831 10.8772 11.7772 10.8333 11.6667 10.8333H8.33332C7.78079 10.8333 7.25088 10.6138 6.86018 10.2231C6.46948 9.83243 6.24999 9.30252 6.24999 8.74999C6.24999 8.19746 6.46948 7.66755 6.86018 7.27685C7.25088 6.88615 7.78079 6.66666 8.33332 6.66666H9.16666V4.99999H10.8333V6.66666H12.9167V8.33332H8.33332C8.22282 8.33332 8.11684 8.37722 8.03869 8.45536C7.96055 8.5335 7.91666 8.63948 7.91666 8.74999C7.91666 8.8605 7.96055 8.96648 8.03869 9.04462C8.11684 9.12276 8.22282 9.16666 8.33332 9.16666H11.6667C12.2192 9.16666 12.7491 9.38615 13.1398 9.77685C13.5305 10.1676 13.75 10.6975 13.75 11.25C13.75 11.8025 13.5305 12.3324 13.1398 12.7231C12.7491 13.1138 12.2192 13.3333 11.6667 13.3333H10.8333V15H9.16666V13.3333H7.08332V11.6667Z" fill="#7F818C"/>
</g>
<defs>
<clipPath id="clip0_1_8139">
<rect width="20" height="20" fill="white"/>
</clipPath>
</defs>
</svg>
