<svg width="108" height="25" viewBox="0 0 108 25" fill="none" xmlns="http://www.w3.org/2000/svg">
<path fill-rule="evenodd" clip-rule="evenodd" d="M65.8153 6.54975V11.0615C65.033 9.99107 63.8184 9.33232 62.2127 9.33232C59.4131 9.33232 57.0869 11.6791 57.0869 14.7464C57.0869 17.7931 59.4131 20.1605 62.2127 20.1605C63.8184 20.1605 65.033 19.5017 65.8153 18.4107V19.8929H68.0385V5.51303L65.8153 6.54975ZM53.4761 19.8929V6.1002L55.6994 5.06348V19.8929H53.4761ZM40.3879 12.4408H33.1829V14.5611H37.9999C37.5676 16.4962 35.9619 17.8549 33.3475 17.8549C30.1156 17.8549 28.0158 15.611 28.0158 12.7084C28.0158 9.76462 30.1567 7.52077 33.2034 7.52077C35.0973 7.52077 36.703 8.46772 37.4441 9.8058L39.4821 8.6324C38.2676 6.59441 35.9414 5.21515 33.2034 5.21515C28.8804 5.21515 25.6484 8.55006 25.6484 12.6878C25.6484 16.8256 28.8392 20.1605 33.327 20.1605C37.547 20.1605 40.3879 17.3608 40.3879 13.4289V12.4408ZM46.6487 20.1605C49.6748 20.1605 52.0834 17.7931 52.0834 14.7464C52.0834 11.6791 49.6748 9.33232 46.6487 9.33232C43.6432 9.33232 41.2141 11.6791 41.2141 14.7464C41.2141 17.7931 43.6432 20.1605 46.6487 20.1605ZM46.6487 17.999C44.8372 17.999 43.4373 16.6197 43.4373 14.7464C43.4373 12.8731 44.8372 11.4938 46.6487 11.4938C48.4603 11.4938 49.8601 12.8731 49.8601 14.7464C49.8601 16.6197 48.4603 17.999 46.6487 17.999ZM62.5627 18.0401C60.71 18.0401 59.3101 16.6609 59.3101 14.7464C59.3101 12.8319 60.71 11.4527 62.5627 11.4527C64.4154 11.4527 65.8153 12.8319 65.8153 14.7464C65.8153 16.6609 64.4154 18.0401 62.5627 18.0401ZM79.8524 16.702L81.8698 9.59994H84.2166L80.9846 19.8929H78.8025L76.6616 12.9554L74.5001 19.8929H72.318L69.086 9.59994H71.4328L73.4296 16.702L75.5911 9.59994H77.7114L79.8524 16.702ZM85.2362 19.8929H87.4595V9.59994H85.2362V19.8929ZM92.8626 11.3497C92.0598 11.3497 91.3598 11.6997 91.3598 12.4408C91.3598 13.213 92.3009 13.4745 93.4071 13.7819C94.9844 14.2202 96.8974 14.7518 96.8974 16.9903C96.8974 19.0488 95.1065 20.1605 92.8832 20.1605C90.8246 20.1605 89.3424 19.2341 88.6837 17.7519L90.5982 16.6403C90.9276 17.5667 91.751 18.1225 92.8832 18.1225C93.8713 18.1225 94.633 17.7931 94.633 16.9697C94.633 16.212 93.686 15.9437 92.5753 15.629C91 15.1827 89.0954 14.643 89.0954 12.482C89.0954 10.5469 90.7629 9.33232 92.8626 9.33232C94.5507 9.33232 95.9505 10.1146 96.671 11.4732L94.7977 12.5231C94.4271 11.7203 93.7066 11.3497 92.8626 11.3497ZM99.7227 15.6933H107.916C107.957 15.4051 107.998 15.0758 107.998 14.767C107.998 11.8026 105.898 9.33232 102.831 9.33232C99.5992 9.33232 97.3965 11.6997 97.3965 14.7464C97.3965 17.8343 99.5992 20.1605 102.996 20.1605C105.013 20.1605 106.557 19.3165 107.504 17.9166L105.672 16.8462C105.178 17.5667 104.252 18.1225 103.016 18.1225C101.37 18.1225 100.073 17.299 99.7227 15.6933ZM99.7021 13.8818C100.011 12.3379 101.143 11.3497 102.811 11.3497C104.149 11.3497 105.446 12.1114 105.754 13.8818H99.7021Z" fill="black"/>
<g clip-path="url(#clip0_1_4850)">
<path fill-rule="evenodd" clip-rule="evenodd" d="M18.3171 0.855469H0V19.1725H5.96875V6.82422H18.3171V0.855469Z" fill="#272127"/>
</g>
<rect x="5.96875" y="18.7227" width="6.17383" height="6.17383" fill="#272127"/>
<rect x="12.1436" y="12.5488" width="6.17383" height="6.17383" fill="#272127"/>
<rect x="85.0781" y="5.67578" width="2.41014" height="2.41014" fill="#272127"/>
<defs>
<clipPath id="clip0_1_4850">
<rect width="18.3171" height="17.9082" fill="white" transform="translate(0 0.855469)"/>
</clipPath>
</defs>
</svg>
