<svg width="20" height="19" viewBox="0 0 20 19" fill="none" xmlns="http://www.w3.org/2000/svg">
<path d="M11 6V14C11 14.7956 10.6839 15.5587 10.1213 16.1213C9.55871 16.6839 8.79565 17 8 17H5.83C5.59409 17.6675 5.1298 18.2301 4.51919 18.5884C3.90858 18.9466 3.19098 19.0775 2.49321 18.9578C1.79545 18.8381 1.16246 18.4756 0.706126 17.9344C0.249797 17.3931 -0.000488281 16.708 -0.000488281 16C-0.000488281 15.292 0.249797 14.6069 0.706126 14.0656C1.16246 13.5244 1.79545 13.1619 2.49321 13.0422C3.19098 12.9225 3.90858 13.0534 4.51919 13.4116C5.1298 13.7699 5.59409 14.3325 5.83 15H8C8.26522 15 8.51957 14.8946 8.70711 14.7071C8.89464 14.5196 9 14.2652 9 14V6C9 5.20435 9.31607 4.44129 9.87868 3.87868C10.4413 3.31607 11.2044 3 12 3H15V0L20 4L15 8V5H12C11.7348 5 11.4804 5.10536 11.2929 5.29289C11.1054 5.48043 11 5.73478 11 6ZM3 17C3.26522 17 3.51957 16.8946 3.70711 16.7071C3.89464 16.5196 4 16.2652 4 16C4 15.7348 3.89464 15.4804 3.70711 15.2929C3.51957 15.1054 3.26522 15 3 15C2.73478 15 2.48043 15.1054 2.29289 15.2929C2.10536 15.4804 2 15.7348 2 16C2 16.2652 2.10536 16.5196 2.29289 16.7071C2.48043 16.8946 2.73478 17 3 17Z" fill="#01041A"/>
</svg>
