<svg width="24" height="24" viewBox="0 0 24 24" fill="none" xmlns="http://www.w3.org/2000/svg">
<g clip-path="url(#clip0_1_19773)">
<path d="M13 8V16C13 16.7956 12.6839 17.5587 12.1213 18.1213C11.5587 18.6839 10.7956 19 10 19H7.83C7.59409 19.6675 7.1298 20.2301 6.51919 20.5884C5.90858 20.9466 5.19098 21.0775 4.49321 20.9578C3.79545 20.8381 3.16246 20.4756 2.70613 19.9344C2.2498 19.3931 1.99951 18.708 1.99951 18C1.99951 17.292 2.2498 16.6069 2.70613 16.0656C3.16246 15.5244 3.79545 15.1619 4.49321 15.0422C5.19098 14.9225 5.90858 15.0534 6.51919 15.4116C7.1298 15.7699 7.59409 16.3325 7.83 17H10C10.2652 17 10.5196 16.8946 10.7071 16.7071C10.8946 16.5196 11 16.2652 11 16V8C11 7.20435 11.3161 6.44129 11.8787 5.87868C12.4413 5.31607 13.2044 5 14 5H17V2L22 6L17 10V7H14C13.7348 7 13.4804 7.10536 13.2929 7.29289C13.1054 7.48043 13 7.73478 13 8ZM5 19C5.26522 19 5.51957 18.8946 5.70711 18.7071C5.89464 18.5196 6 18.2652 6 18C6 17.7348 5.89464 17.4804 5.70711 17.2929C5.51957 17.1054 5.26522 17 5 17C4.73478 17 4.48043 17.1054 4.29289 17.2929C4.10536 17.4804 4 17.7348 4 18C4 18.2652 4.10536 18.5196 4.29289 18.7071C4.48043 18.8946 4.73478 19 5 19Z" fill="#404353"/>
</g>
<defs>
<clipPath id="clip0_1_19773">
<rect width="24" height="24" fill="white"/>
</clipPath>
</defs>
</svg>
