<svg width="24" height="24" viewBox="0 0 24 24" fill="none" xmlns="http://www.w3.org/2000/svg">
<g clip-path="url(#clip0_1_19767)">
<path d="M7.82996 20.0002C7.66092 20.4781 7.37358 20.9054 6.99475 21.2422C6.61592 21.579 6.15795 21.8143 5.66357 21.9263C5.16918 22.0383 4.65449 22.0232 4.16752 21.8824C3.68055 21.7417 3.23716 21.4799 2.87873 21.1214C2.52029 20.763 2.25849 20.3196 2.11775 19.8326C1.97701 19.3457 1.96191 18.831 2.07387 18.3366C2.18582 17.8422 2.42118 17.3843 2.75799 17.0054C3.0948 16.6266 3.52208 16.3393 3.99996 16.1702V7.83021C3.52208 7.66116 3.0948 7.37382 2.75799 6.99499C2.42118 6.61617 2.18582 6.1582 2.07387 5.66381C1.96191 5.16943 1.97701 4.65474 2.11775 4.16777C2.25849 3.68079 2.52029 3.23741 2.87873 2.87897C3.23716 2.52054 3.68055 2.25874 4.16752 2.11799C4.65449 1.97725 5.16918 1.96215 5.66357 2.07411C6.15795 2.18607 6.61592 2.42143 6.99475 2.75824C7.37358 3.09504 7.66092 3.52232 7.82996 4.00021H16.17C16.339 3.52232 16.6264 3.09504 17.0052 2.75824C17.384 2.42143 17.842 2.18607 18.3364 2.07411C18.8307 1.96215 19.3454 1.97725 19.8324 2.11799C20.3194 2.25874 20.7628 2.52054 21.1212 2.87897C21.4796 3.23741 21.7414 3.68079 21.8822 4.16777C22.0229 4.65474 22.038 5.16943 21.9261 5.66381C21.8141 6.1582 21.5787 6.61617 21.2419 6.99499C20.9051 7.37382 20.4778 7.66116 20 7.83021V16.1702C20.4778 16.3393 20.9051 16.6266 21.2419 17.0054C21.5787 17.3843 21.8141 17.8422 21.9261 18.3366C22.038 18.831 22.0229 19.3457 21.8822 19.8326C21.7414 20.3196 21.4796 20.763 21.1212 21.1214C20.7628 21.4799 20.3194 21.7417 19.8324 21.8824C19.3454 22.0232 18.8307 22.0383 18.3364 21.9263C17.842 21.8143 17.384 21.579 17.0052 21.2422C16.6264 20.9054 16.339 20.4781 16.17 20.0002H7.82996ZM7.82996 18.0002H16.17C16.3196 17.5782 16.5615 17.1949 16.8781 16.8783C17.1947 16.5617 17.578 16.3198 18 16.1702V7.83021C17.578 7.6806 17.1947 7.43867 16.8781 7.12208C16.5615 6.80548 16.3196 6.42221 16.17 6.00021H7.82996C7.68036 6.42221 7.43843 6.80548 7.12183 7.12208C6.80524 7.43867 6.42196 7.6806 5.99996 7.83021V16.1702C6.42196 16.3198 6.80524 16.5617 7.12183 16.8783C7.43843 17.1949 7.68036 17.5782 7.82996 18.0002V18.0002ZM4.99996 6.00021C5.26518 6.00021 5.51953 5.89485 5.70707 5.70731C5.89461 5.51978 5.99996 5.26542 5.99996 5.00021C5.99996 4.73499 5.89461 4.48064 5.70707 4.2931C5.51953 4.10556 5.26518 4.00021 4.99996 4.00021C4.73475 4.00021 4.48039 4.10556 4.29286 4.2931C4.10532 4.48064 3.99996 4.73499 3.99996 5.00021C3.99996 5.26542 4.10532 5.51978 4.29286 5.70731C4.48039 5.89485 4.73475 6.00021 4.99996 6.00021ZM19 6.00021C19.2652 6.00021 19.5195 5.89485 19.7071 5.70731C19.8946 5.51978 20 5.26542 20 5.00021C20 4.73499 19.8946 4.48064 19.7071 4.2931C19.5195 4.10556 19.2652 4.00021 19 4.00021C18.7347 4.00021 18.4804 4.10556 18.2929 4.2931C18.1053 4.48064 18 4.73499 18 5.00021C18 5.26542 18.1053 5.51978 18.2929 5.70731C18.4804 5.89485 18.7347 6.00021 19 6.00021ZM19 20.0002C19.2652 20.0002 19.5195 19.8949 19.7071 19.7073C19.8946 19.5198 20 19.2654 20 19.0002C20 18.735 19.8946 18.4806 19.7071 18.2931C19.5195 18.1056 19.2652 18.0002 19 18.0002C18.7347 18.0002 18.4804 18.1056 18.2929 18.2931C18.1053 18.4806 18 18.735 18 19.0002C18 19.2654 18.1053 19.5198 18.2929 19.7073C18.4804 19.8949 18.7347 20.0002 19 20.0002ZM4.99996 20.0002C5.26518 20.0002 5.51953 19.8949 5.70707 19.7073C5.89461 19.5198 5.99996 19.2654 5.99996 19.0002C5.99996 18.735 5.89461 18.4806 5.70707 18.2931C5.51953 18.1056 5.26518 18.0002 4.99996 18.0002C4.73475 18.0002 4.48039 18.1056 4.29286 18.2931C4.10532 18.4806 3.99996 18.735 3.99996 19.0002C3.99996 19.2654 4.10532 19.5198 4.29286 19.7073C4.48039 19.8949 4.73475 20.0002 4.99996 20.0002Z" fill="#404353"/>
</g>
<defs>
<clipPath id="clip0_1_19767">
<rect width="24" height="24" fill="white"/>
</clipPath>
</defs>
</svg>
